#!OML:ASF Y:\EmotionMaleHayes\Project 1\Capture day 1\Session 1\Male1.ASF
:FULLY-SPECIFIED
:DEGREES
1551
root -26.5303 16.737 10.1762 895.616 -15.7365 180.392
lowerback 7.10533 0.798448 3.32773
upperback 2.8876 1.0705 2.8141
thorax -0.988481 0.43081 0.948816
lowerneck -16.7756 -5.53015 -3.90341
upperneck 34.0238 -15.9715 12.2822
head 16.5772 -6.77418 2.52198
rclavicle -4.17448e-015 7.95139e-015
rhumerus -36.999 12.431 -88.3975
rradius 58.6207
rwrist -4.98573
rhand -6.80678 -29.3527
rfingers 7.12502
rthumb 19.0566 -58.4392
lclavicle -4.17448e-015 7.95139e-015
lhumerus -39.7146 -10.6392 92.9499
lradius 28.9731
lwrist -28.2333
lhand 6.77647 -27.6376
lfingers 7.12502
lthumb 32.0629 -0.444298
rfemur 2.54032 -3.37502 30.2048
rtibia 11.5001
rfoot -14.2902 1.19319
rtoes 35.8552
lfemur -6.45641 6.04886 -7.21444
ltibia 60.3628
lfoot -6.35174 4.50186
ltoes -9.47643
1552
root -26.5927 16.7397 10.071 895.666 -14.1849 180.669
lowerback 7.13848 0.965255 3.6327
upperback 2.85437 1.31339 2.76092
thorax -1.03003 0.552468 0.704091
lowerneck -16.8287 -5.52852 -4.06558
upperneck 33.9866 -16.0709 12.5191
head 16.6352 -6.82302 2.62301
rclavicle -7.38485e-014 1.11319e-014
rhumerus -36.4317 13.2806 -88.7636
rradius 60.0248
rwrist -5.18494
rhand -6.61754 -28.5383
rfingers 7.12502
rthumb 19.2386 -57.6067
lclavicle -7.38485e-014 1.11319e-014
lhumerus -40.4854 -10.6778 93.7899
lradius 28.7783
lwrist -21.5336
lhand 8.54078 -25.025
lfingers 7.12502
lthumb 33.741 1.81588
rfemur 2.98578 -2.92487 30.5699
rtibia 11.4779
rfoot -14.3929 2.15898
rtoes 36.1082
lfemur -7.42469 6.00421 -6.67329
ltibia 59.471
lfoot -7.07432 4.58941
ltoes -8.23267
1553
root -26.6648 16.7465 9.96957 895.602 -13.0686 180.749
lowerback 7.36447 0.929897 3.79735
upperback 2.83403 1.28674 2.68966
thorax -1.17065 0.53678 0.537352
lowerneck -16.8383 -5.38368 -4.02441
upperneck 34.0073 -15.8563 12.4483
head 16.6045 -6.74828 2.62873
rclavicle -3.97569e-016 -2.94201e-014
rhumerus -35.8872 14.4637 -89.045
rradius 61.2946
rwrist -5.662
rhand -5.30371 -26.2413
rfingers 7.12502
rthumb 20.5016 -55.1789
lclavicle -3.97569e-016 -2.94201e-014
lhumerus -41.1449 -9.86584 94.1725
lradius 28.6071
lwrist -16.2956
lhand 10.0068 -23.0218
lfingers 7.12502
lthumb 35.1328 3.50311
rfemur 3.64945 -2.83223 30.4724
rtibia 11.3174
rfoot -14.4752 3.11192
rtoes 37.6007
lfemur -8.35811 5.40106 -6.55437
ltibia 58.4974
lfoot -8.09021 4.78807
ltoes -4.00621
1554
root -26.732 16.7475 9.86717 895.728 -11.9089 180.523
lowerback 7.44496 0.96562 3.61046
upperback 2.80335 1.33301 2.54567
thorax -1.24795 0.561987 0.487988
lowerneck -16.8357 -5.23708 -3.95839
upperneck 33.9553 -15.6489 12.4461
head 16.5426 -6.66545 2.65766
rclavicle 6.16232e-015 3.02153e-014
rhumerus -35.0159 15.5686 -89.2732
rradius 62.3315
rwrist -6.1247
rhand -7.98391 -27.7957
rfingers 7.12502
rthumb 17.9243 -56.9897
lclavicle 6.16232e-015 3.02153e-014
lhumerus -41.605 -8.41391 93.9922
lradius 28.2915
lwrist -13.1142
lhand 11.0481 -21.9852
lfingers 7.12502
lthumb 36.1198 4.30179
rfemur 4.23584 -1.30125 30.5164
rtibia 11.1359
rfoot -14.6912 2.74756
rtoes 37.4093
lfemur -9.37578 4.87834 -6.7309
ltibia 57.3992
lfoot -8.97731 4.93694
ltoes -2.20734
1555
root -26.8006 16.7503 9.76444 895.735 -10.7236 180.601
lowerback 7.59307 1.06768 3.80443
upperback 2.79154 1.48924 2.43175
thorax -1.33073 0.639796 0.246726
lowerneck -16.7936 -5.23859 -3.59472
upperneck 33.7778 -15.6067 12.1979
head 16.367 -6.63893 2.49389
rclavicle 2.68359e-014 7.15625e-014
rhumerus -34.4906 16.265 -89.4448
rradius 63.7533
rwrist -6.53795
rhand -9.11802 -28.8013
rfingers 7.12502
rthumb 16.8328 -58.0917
lclavicle 2.68359e-014 7.15625e-014
lhumerus -42.0544 -7.32651 93.8445
lradius 27.7171
lwrist -11.8404
lhand 9.9189 -21.8996
lfingers 7.12502
lthumb 35.0494 4.64487
rfemur 4.77365 -0.593928 30.6363
rtibia 11.0857
rfoot -14.6743 3.08211
rtoes 35.5446
lfemur -10.2224 4.23068 -6.52465
ltibia 56.1104
lfoot -9.59803 5.07748
ltoes -5.21938
